<svg xmlns="http://www.w3.org/2000/svg" width="100" height="38" viewBox="0 0 100 38">
    <g fill="none" fill-rule="evenodd">
        <g fill-rule="nonzero">
            <g>
                <path fill="#1D45DB" d="M16.395.184c3.647-.509 7.443.04 10.773 1.613 2.963 1.382 5.546 3.546 7.446 6.197-7.546-1.366-15.558-.07-22.24 3.697.002 1.851 0 3.702 0 5.553 3.18-2.19 6.811-3.727 10.604-4.476 4.755-.942 9.751-.676 14.366.809 1.082 3.625 1.05 7.573-.102 11.178-.916 2.885-2.544 5.54-4.693 7.679-2.377 2.375-5.394 4.108-8.653 4.951-4.557 1.194-9.552.637-13.715-1.568.868-3.417 2.727-6.574 5.284-9.007 2.804-2.695 6.458-4.492 10.312-5.07v-4.602c-4.067.483-7.997 2.045-11.286 4.478-3.847 2.828-6.808 6.833-8.368 11.338-2.441-2.248-4.285-5.14-5.267-8.306-1.246-3.981-1.13-8.373.337-12.28C2.43 9.05 4.622 6.098 7.436 3.942c2.593-1.997 5.712-3.31 8.96-3.758z" transform="translate(-216 -20) translate(216 20)"/>
                <path fill="#000" d="M44.95 7.777h15.083c.003 1.38.003 2.76 0 4.142-3.562.002-7.125-.001-10.688.001-.002 1.82-.002 3.638 0 5.457 3.347.002 6.694-.001 10.042.002v4.107c-3.348.003-6.695 0-10.042.003-.003 2.781.001 5.563-.002 8.345H44.95c-.002-7.352-.001-14.705 0-22.057zM62.218 7.777h4.288c-.004 7.352-.023 14.704-.03 22.057h-4.258c-.002-7.353-.001-14.705 0-22.057zM74.79 14.074c1.76-.273 3.628-.139 5.262.607 1.986.912 3.526 2.73 4.097 4.834.414 1.533.435 3.169.089 4.717-.467 2.082-1.855 3.933-3.723 4.972-1.634.918-3.585 1.142-5.426.908-1.455-.187-2.863-.786-3.97-1.752-1.376-1.171-2.334-2.82-2.634-4.601-.32-1.902-.143-3.938.755-5.669 1.088-2.102 3.192-3.66 5.55-4.016m.545 4.037c-1.318.312-2.347 1.443-2.663 2.737-.348 1.42-.093 3.066.962 4.14 1.03 1.149 2.788 1.388 4.202.9 1.164-.414 2.033-1.474 2.315-2.659.19-.801.183-1.65-.024-2.446-.3-1.125-1.127-2.123-2.228-2.54-.814-.306-1.722-.33-2.564-.132z" transform="translate(-216 -20) translate(216 20)"/>
                <path fill="#000" d="M83.857 14.251c1.642-.006 3.283.006 4.925-.006 1.064 1.447 2.092 2.92 3.145 4.375 1.043-1.455 2.085-2.912 3.127-4.368 1.648-.004 3.295-.002 4.944-.002-1.859 2.603-3.723 5.202-5.582 7.804 1.86 2.603 3.724 5.203 5.584 7.806-1.65-.001-3.299.007-4.949-.005-1.037-1.458-2.08-2.91-3.122-4.366-1.053 1.452-2.088 2.917-3.136 4.372-1.646 0-3.292.002-4.938-.001 1.868-2.605 3.746-5.202 5.616-7.807-1.87-2.602-3.746-5.2-5.614-7.802z" transform="translate(-216 -20) translate(216 20)"/>
            </g>
        </g>
    </g>
</svg>
