<svg xmlns="http://www.w3.org/2000/svg" width="12" height="12" viewBox="0 0 12 12">
    <g fill="none" fill-rule="evenodd">
        <g fill="#C9C9D0" fill-rule="nonzero">
            <g>
                <g>
                    <path d="M6 0C2.692 0 0 2.692 0 6s2.692 6 6 6 6-2.692 6-6-2.692-6-6-6zm0 9.6c-.332 0-.6-.268-.6-.6 0-.332.268-.6.6-.6.332 0 .6.268.6.6 0 .332-.268.6-.6.6zm.897-3.307c-.298.232-.447.348-.447.757 0 .249-.201.45-.45.45s-.45-.201-.45-.45c0-.848.459-1.206.794-1.467.323-.251.556-.433.556-1.083 0-.496-.404-.9-.9-.9s-.9.404-.9.9v.15c0 .249-.201.45-.45.45s-.45-.201-.45-.45V4.5c0-.993.807-1.8 1.8-1.8s1.8.807 1.8 1.8c0 1.09-.522 1.496-.903 1.793z" transform="translate(-461.000000, -169.000000) translate(290.000000, 154.000000) translate(171.000000, 15.000000)"/>
                </g>
            </g>
        </g>
    </g>
</svg>
