<svg xmlns="http://www.w3.org/2000/svg" width="16" height="16" viewBox="0 0 16 16">
    <g fill="none" fill-rule="evenodd">
        <g fill="#7D7D92" fill-rule="nonzero">
            <g>
                <path d="M8 0c4.33 0 7.872 3.446 7.997 7.773L16 8c0 4.33-3.446 7.872-7.773 7.997L8 16C3.67 16 .128 12.554.003 8.227L0 8C0 3.67 3.446.128 7.773.003zm0 1.23l-.2.004c-3.654.105-6.57 3.102-6.57 6.757l.004.209c.105 3.654 3.102 6.57 6.757 6.57l.209-.004c3.654-.105 6.57-3.102 6.57-6.757l-.004-.209C14.661 4.146 11.664 1.23 8 1.23zm0 9.437l.095.005c.408.048.726.394.726.815 0 .453-.368.82-.821.82-.453 0-.82-.367-.82-.815-.004-.425.317-.776.73-.82l.09-.005zm0-6.975c.312 0 .569.232.61.532l.005.084V8.41c0 .34-.275.616-.615.616-.312 0-.569-.232-.61-.532l-.005-.084V4.308c0-.34.275-.616.615-.616z" transform="translate(-74 -187) translate(74 187)"/>
            </g>
        </g>
    </g>
</svg>
